<?xml version="1.0" encoding="UTF-8" standalone="no"?>
<!DOCTYPE svg PUBLIC "-//W3C//DTD SVG 1.1//EN" "http://www.w3.org/Graphics/SVG/1.1/DTD/svg11.dtd">
<svg width="100%" height="100%" viewBox="0 0 160 131" version="1.1" xmlns="http://www.w3.org/2000/svg" xmlns:xlink="http://www.w3.org/1999/xlink" xml:space="preserve" xmlns:serif="http://www.serif.com/" style="fill-rule:evenodd;clip-rule:evenodd;stroke-linejoin:round;stroke-miterlimit:2;">
    <g transform="matrix(1,0,0,1,-4498.5,-9715.49)">
        <g transform="matrix(1,0,0,2.11505,4167.39,9622.08)">
            <g transform="matrix(1,0,0,0.472802,-61.2406,3.35946e-14)">
                <g transform="matrix(0.807882,0,0,0.807882,116.301,57.3614)">
                    <path d="M368.458,195.844L370.926,195.844L370.926,186.487L374.275,186.487L374.275,184.329L365.091,184.329L365.091,186.487L368.458,186.487L368.458,195.844Z" style="fill:rgb(0,150,125);fill-rule:nonzero;"/>
                    <path d="M375.846,195.844L383.994,195.844L383.994,193.721L378.298,193.721L378.298,191.045L383.874,191.045L383.874,188.939L378.298,188.939L378.298,186.435L383.994,186.435L383.994,184.329L375.846,184.329L375.846,195.844Z" style="fill:rgb(0,150,125);fill-rule:nonzero;"/>
                    <path d="M391.4,196.051C394.024,196.051 395.475,194.653 396.303,193.22L394.197,192.201C393.714,193.151 392.678,193.876 391.4,193.876C389.398,193.876 387.879,192.27 387.879,190.095C387.879,187.92 389.398,186.315 391.4,186.315C392.678,186.315 393.714,187.057 394.197,187.989L396.303,186.953C395.492,185.52 394.024,184.139 391.4,184.139C388.034,184.139 385.358,186.556 385.358,190.095C385.358,193.634 388.034,196.051 391.4,196.051Z" style="fill:rgb(0,150,125);fill-rule:nonzero;"/>
                    <path d="M405.66,195.844L408.129,195.844L408.129,184.329L405.66,184.329L405.66,188.852L400.222,188.852L400.222,184.329L397.771,184.329L397.771,195.844L400.222,195.844L400.222,191.01L405.66,191.01L405.66,195.844Z" style="fill:rgb(0,150,125);fill-rule:nonzero;"/>
                    <path d="M418.331,195.844L420.696,195.844L420.696,184.329L418.245,184.329L418.245,191.787L412.911,184.329L410.39,184.329L410.39,195.844L412.841,195.844L412.841,188.11L418.331,195.844Z" style="fill:rgb(0,150,125);fill-rule:nonzero;"/>
                    <path d="M422.423,190.095C422.423,193.565 424.96,196.051 428.43,196.051C431.917,196.051 434.455,193.565 434.455,190.095C434.455,186.625 431.917,184.139 428.43,184.139C424.96,184.139 422.423,186.625 422.423,190.095ZM431.935,190.095C431.935,192.236 430.554,193.876 428.43,193.876C426.307,193.876 424.943,192.236 424.943,190.095C424.943,187.937 426.307,186.315 428.43,186.315C430.554,186.315 431.935,187.937 431.935,190.095Z" style="fill:rgb(0,150,125);fill-rule:nonzero;"/>
                    <path d="M436.181,195.844L443.501,195.844L443.501,193.686L438.633,193.686L438.633,184.329L436.181,184.329L436.181,195.844Z" style="fill:rgb(0,150,125);fill-rule:nonzero;"/>
                    <path d="M444.192,190.095C444.192,193.565 446.729,196.051 450.199,196.051C453.686,196.051 456.224,193.565 456.224,190.095C456.224,186.625 453.686,184.139 450.199,184.139C446.729,184.139 444.192,186.625 444.192,190.095ZM453.704,190.095C453.704,192.236 452.323,193.876 450.199,193.876C448.076,193.876 446.712,192.236 446.712,190.095C446.712,187.937 448.076,186.315 450.199,186.315C452.323,186.315 453.704,187.937 453.704,190.095Z" style="fill:rgb(0,150,125);fill-rule:nonzero;"/>
                    <path d="M457.398,190.095C457.398,193.721 460.16,196.068 463.527,196.068C465.615,196.068 467.255,195.205 468.429,193.893L468.429,189.491L462.94,189.491L462.94,191.597L466.012,191.597L466.012,192.995C465.512,193.444 464.58,193.876 463.527,193.876C461.438,193.876 459.919,192.27 459.919,190.095C459.919,187.92 461.438,186.315 463.527,186.315C464.735,186.315 465.719,186.953 466.254,187.765L468.291,186.66C467.411,185.296 465.909,184.139 463.527,184.139C460.16,184.139 457.398,186.453 457.398,190.095Z" style="fill:rgb(0,150,125);fill-rule:nonzero;"/>
                    <path d="M473.246,195.844L475.697,195.844L475.697,191.131L480.099,184.329L477.303,184.329L474.472,188.956L471.606,184.329L468.809,184.329L473.246,191.131L473.246,195.844Z" style="fill:rgb(0,150,125);fill-rule:nonzero;"/>
                </g>
                <g transform="matrix(0.708142,0,0,0.708142,-80.2416,-591.276)">
                    <path d="M684.982,1040.35C684.481,1032.59 685.357,1025.84 686.108,1016.95C686.608,1011.2 689.236,998.686 686.233,995.432C685.357,994.431 682.104,993.43 679.226,993.806C672.094,994.932 672.97,1007.57 672.344,1016.95C670.718,1028.59 670.467,1041.23 669.967,1052.74C669.216,1062.25 667.715,1071.88 667.965,1081.14C667.464,1087.65 666.088,1092.28 670.467,1093.9C675.848,1096.03 680.602,1091.15 681.478,1088.4C682.98,1078.52 681.353,1065.75 684.606,1055.99C687.484,1054.62 691.738,1055.49 695.867,1055.49C698.495,1055.49 701.123,1054.74 703.125,1055.62C706.253,1061.75 698.745,1082.64 704.376,1084.14C707.129,1085.27 712.759,1087.15 714.636,1082.64C715.887,1080.39 716.388,1070.63 717.013,1066.13C718.89,1052.74 719.516,1034.22 719.641,1020.58C719.766,1013.83 722.394,999.812 719.14,997.184C715.137,994.056 709.131,996.809 707.504,1000.19C706.378,1002.56 706.753,1005.82 706.878,1009.7C706.753,1018.08 706.503,1033.85 703.875,1039.98C702.624,1041.6 698.245,1042.23 694.741,1042.35C691.238,1042.35 687.359,1042.48 684.982,1040.35Z" style="fill:rgb(0,150,125);"/>
                </g>
                <g transform="matrix(0.708142,0,0,0.708142,-90.7025,-598.035)">
                    <path d="M856.526,1026.84C852.522,1027.46 850.521,1028.84 847.518,1031.09C842.763,1034.85 842.137,1036.22 839.259,1040.73C833.754,1048.86 832.378,1063.25 839.009,1072.38C842.638,1076.14 849.895,1080.14 856.276,1080.77C863.909,1081.64 869.664,1079.52 874.419,1076.39C882.677,1070.38 888.433,1060.75 887.057,1050.86C886.556,1034.85 874.669,1023.59 856.526,1026.84ZM848.143,1059.25C846.892,1051.36 852.898,1039.73 859.655,1038.47C868.413,1036.85 875.921,1046.23 873.668,1056.74C872.542,1062.37 867.162,1067.13 863.283,1068.25C855.025,1070.38 849.144,1065.38 848.143,1059.25Z" style="fill:rgb(0,150,125);fill-rule:nonzero;"/>
                </g>
                <g transform="matrix(0.708142,0,0,0.708142,-82.7654,-603.817)">
                    <path d="M744.415,1068.38C747.418,1067.38 752.549,1065.88 756.427,1064.75C762.183,1063.12 765.061,1061.37 770.691,1059.37C774.07,1058.24 776.447,1053.99 776.197,1050.61C776.197,1048.36 774.445,1043.36 773.569,1041.85C768.189,1029.22 757.929,1025.59 745.667,1029.84C740.662,1031.34 735.031,1036.22 732.028,1041.85C728.024,1047.36 726.648,1055.24 729.025,1066C732.404,1076.26 735.657,1079.89 745.792,1084.02C752.173,1087.4 764.435,1085.77 770.817,1081.14C772.944,1079.39 773.569,1075.51 770.817,1072.63C766.062,1069.76 762.558,1076.51 754.175,1074.76C748.67,1073.63 745.416,1072.51 744.415,1068.38ZM744.415,1044.73C752.298,1038.35 759.806,1038.85 763.059,1048.36C762.433,1050.49 758.805,1052.61 755.927,1053.24C751.548,1054.12 743.915,1056.62 741.663,1056.24C740.662,1053.99 741.162,1047.36 744.415,1044.73Z" style="fill:rgb(0,150,125);fill-rule:nonzero;"/>
                </g>
                <g transform="matrix(0.708142,0,0,0.708142,-86.2876,-595.369)">
                    <path d="M797.593,996.558C789.085,999.186 789.961,1013.08 789.085,1023.46C787.833,1038.47 786.332,1049.61 784.58,1065C783.955,1071.01 780.076,1087.27 784.33,1089.65C787.959,1091.9 793.339,1088.27 794.84,1084.27C795.841,1081.64 797.093,1071.76 797.468,1068.13C799.095,1049.74 801.097,1033.6 802.473,1014.45C803.099,1007.07 806.352,993.931 797.593,996.558Z" style="fill:rgb(0,150,125);fill-rule:nonzero;"/>
                </g>
                <g transform="matrix(0.708142,0,0,0.708142,-89.6933,-590.712)">
                    <path d="M823.619,996.558C815.11,999.186 815.986,1013.08 815.11,1023.46C813.859,1038.47 812.358,1049.61 810.606,1065C809.98,1071.01 806.102,1087.27 810.356,1089.65C813.984,1091.9 819.365,1088.27 820.866,1084.27C821.867,1081.64 823.118,1071.76 823.494,1068.13C825.12,1049.74 827.122,1033.6 828.499,1014.45C829.124,1007.07 832.378,993.931 823.619,996.558Z" style="fill:rgb(0,150,125);fill-rule:nonzero;"/>
                </g>
                <g transform="matrix(0.179122,0,0,0.179122,-817.093,35.7061)">
                    <path d="M7380.56,913.721C7416.75,929.491 7447.42,958.189 7434.09,1010.34C7408.2,1111.59 7559.72,990.986 7550.39,913.721L7621.53,913.721C7633.03,913.721 7642.36,904.394 7642.36,892.888L7642.36,342.942C7642.36,331.436 7633.03,322.109 7621.53,322.109L6870.3,322.109C6858.8,322.109 6849.47,331.444 6849.47,342.942C6849.47,354.44 6858.8,363.775 6870.3,363.775L7600.69,363.775C7600.69,363.775 7600.69,872.055 7600.69,872.055C7600.69,872.055 6876.14,872.055 6876.14,872.055C6864.64,872.055 6855.31,881.39 6855.31,892.888C6855.31,904.386 6864.64,913.721 6876.14,913.721L7380.56,913.721ZM7245.91,332.532C7251.66,332.532 7256.32,337.196 7256.32,342.942C7256.32,348.688 7251.66,353.352 7245.91,353.352C7240.17,353.352 7235.5,348.688 7235.5,342.942C7235.5,337.196 7240.17,332.532 7245.91,332.532Z" style="fill:rgb(0,150,125);"/>
                </g>
            </g>
        </g>
    </g>
</svg>
