<?xml version="1.0" encoding="UTF-8" standalone="no"?>
<!DOCTYPE svg PUBLIC "-//W3C//DTD SVG 1.1//EN" "http://www.w3.org/Graphics/SVG/1.1/DTD/svg11.dtd">
<svg width="100%" height="100%" viewBox="0 0 170 86" version="1.1" xmlns="http://www.w3.org/2000/svg" xmlns:xlink="http://www.w3.org/1999/xlink" xml:space="preserve" xmlns:serif="http://www.serif.com/" style="fill-rule:evenodd;clip-rule:evenodd;stroke-linejoin:round;stroke-miterlimit:2;">
    <g transform="matrix(1,0,0,1,-1452.69,-3936.21)">
        <g transform="matrix(1,0,0,2.11505,0,3037.79)">
            <g transform="matrix(0.593062,0,0,0.593062,1031.77,21.2109)">
                <g opacity="0.8">
                    <g transform="matrix(1.38923,0,0,0.656832,-217.382,29.9161)">
                        <path d="M684.982,1040.35C684.481,1032.59 685.357,1025.84 686.108,1016.95C686.608,1011.2 689.236,998.686 686.233,995.432C685.357,994.431 682.104,993.43 679.226,993.806C672.094,994.932 672.97,1007.57 672.344,1016.95C670.718,1028.59 670.467,1041.23 669.967,1052.74C669.216,1062.25 667.715,1071.88 667.965,1081.14C667.464,1087.65 666.088,1092.28 670.467,1093.9C675.848,1096.03 680.602,1091.15 681.478,1088.4C682.98,1078.52 681.353,1065.75 684.606,1055.99C687.484,1054.62 691.738,1055.49 695.867,1055.49C698.495,1055.49 701.123,1054.74 703.125,1055.62C706.253,1061.75 698.745,1082.64 704.376,1084.14C707.129,1085.27 712.759,1087.15 714.636,1082.64C715.887,1080.39 716.388,1070.63 717.013,1066.13C718.89,1052.74 719.516,1034.22 719.641,1020.58C719.766,1013.83 722.394,999.812 719.14,997.184C715.137,994.056 709.131,996.809 707.504,1000.19C706.378,1002.56 706.753,1005.82 706.878,1009.7C706.753,1018.08 706.503,1033.85 703.875,1039.98C702.624,1041.6 698.245,1042.23 694.741,1042.35C691.238,1042.35 687.359,1042.48 684.982,1040.35Z" style="fill:rgb(245,231,211);"/>
                    </g>
                    <g transform="matrix(1.38923,0,0,0.656832,-237.904,23.6466)">
                        <path d="M856.526,1026.84C852.522,1027.46 850.521,1028.84 847.518,1031.09C842.763,1034.85 842.137,1036.22 839.259,1040.73C833.754,1048.86 832.378,1063.25 839.009,1072.38C842.638,1076.14 849.895,1080.14 856.276,1080.77C863.909,1081.64 869.664,1079.52 874.419,1076.39C882.677,1070.38 888.433,1060.75 887.057,1050.86C886.556,1034.85 874.669,1023.59 856.526,1026.84ZM848.143,1059.25C846.892,1051.36 852.898,1039.73 859.655,1038.47C868.413,1036.85 875.921,1046.23 873.668,1056.74C872.542,1062.37 867.162,1067.13 863.283,1068.25C855.025,1070.38 849.144,1065.38 848.143,1059.25Z" style="fill:rgb(245,231,211);fill-rule:nonzero;"/>
                    </g>
                    <g transform="matrix(1.38923,0,0,0.656832,-222.333,18.2844)">
                        <path d="M744.415,1068.38C747.418,1067.38 752.549,1065.88 756.427,1064.75C762.183,1063.12 765.061,1061.37 770.691,1059.37C774.07,1058.24 776.447,1053.99 776.197,1050.61C776.197,1048.36 774.445,1043.36 773.569,1041.85C768.189,1029.22 757.929,1025.59 745.667,1029.84C740.662,1031.34 735.031,1036.22 732.028,1041.85C728.024,1047.36 726.648,1055.24 729.025,1066C732.404,1076.26 735.657,1079.89 745.792,1084.02C752.173,1087.4 764.435,1085.77 770.817,1081.14C772.944,1079.39 773.569,1075.51 770.817,1072.63C766.062,1069.76 762.558,1076.51 754.175,1074.76C748.67,1073.63 745.416,1072.51 744.415,1068.38ZM744.415,1044.73C752.298,1038.35 759.806,1038.85 763.059,1048.36C762.433,1050.49 758.805,1052.61 755.927,1053.24C751.548,1054.12 743.915,1056.62 741.663,1056.24C740.662,1053.99 741.162,1047.36 744.415,1044.73Z" style="fill:rgb(245,231,211);fill-rule:nonzero;"/>
                    </g>
                    <g transform="matrix(1.38923,0,0,0.656832,-229.243,26.1201)">
                        <path d="M797.593,996.558C789.085,999.186 789.961,1013.08 789.085,1023.46C787.833,1038.47 786.332,1049.61 784.58,1065C783.955,1071.01 780.076,1087.27 784.33,1089.65C787.959,1091.9 793.339,1088.27 794.84,1084.27C795.841,1081.64 797.093,1071.76 797.468,1068.13C799.095,1049.74 801.097,1033.6 802.473,1014.45C803.099,1007.07 806.352,993.931 797.593,996.558Z" style="fill:rgb(245,231,211);fill-rule:nonzero;"/>
                    </g>
                    <g transform="matrix(1.38923,0,0,0.656832,-235.924,30.4393)">
                        <path d="M823.619,996.558C815.11,999.186 815.986,1013.08 815.11,1023.46C813.859,1038.47 812.358,1049.61 810.606,1065C809.98,1071.01 806.102,1087.27 810.356,1089.65C813.984,1091.9 819.365,1088.27 820.866,1084.27C821.867,1081.64 823.118,1071.76 823.494,1068.13C825.12,1049.74 827.122,1033.6 828.499,1014.45C829.124,1007.07 832.378,993.931 823.619,996.558Z" style="fill:rgb(245,231,211);fill-rule:nonzero;"/>
                    </g>
                </g>
            </g>
        </g>
    </g>
</svg>
