<?xml version="1.0" encoding="UTF-8" standalone="no"?>
<!DOCTYPE svg PUBLIC "-//W3C//DTD SVG 1.1//EN" "http://www.w3.org/Graphics/SVG/1.1/DTD/svg11.dtd">
<svg width="100%" height="100%" viewBox="0 0 246 71" version="1.1" xmlns="http://www.w3.org/2000/svg" xmlns:xlink="http://www.w3.org/1999/xlink" xml:space="preserve" xmlns:serif="http://www.serif.com/" style="fill-rule:evenodd;clip-rule:evenodd;stroke-linejoin:round;stroke-miterlimit:2;">
    <g transform="matrix(1,0,0,1,-301.347,-4740.41)">
        <g transform="matrix(1,0,0,2.11505,0,3037.79)">
            <g transform="matrix(0.549751,0,0,0.259923,424.024,821.568)">
                <g transform="matrix(1,0,0,1,-223.15,-63.75)">
                    <clipPath id="_clip1">
                        <rect x="0" y="0" width="446.3" height="127.5"/>
                    </clipPath>
                    <g clip-path="url(#_clip1)">
                        <g>
                            <g>
                                <path id="s_5_" d="M154.4,70.9C150.6,68.8 148.6,67.1 148.6,64.7C148.6,61.6 151.3,59.7 155.6,59.7C160.6,59.7 165,61.8 165,61.8L168.5,51.1C168.5,51.1 165.3,48.6 155.8,48.6C142.6,48.6 133.4,56.2 133.4,66.8C133.4,72.8 137.7,77.4 143.4,80.7C148,83.3 149.6,85.2 149.6,87.9C149.6,90.8 147.3,93.1 143,93.1C136.6,93.1 130.6,89.8 130.6,89.8L126.9,100.5C126.9,100.5 132.5,104.2 141.8,104.2C155.4,104.2 165.1,97.5 165.1,85.5C165.3,78.9 160.3,74.3 154.4,70.9Z" style="fill:white;fill-rule:nonzero;"/>
                                <path id="h_5_" d="M208.6,48.4C201.9,48.4 196.7,51.6 192.6,56.4L192.4,56.3L198.2,25.9L183,25.9L168.3,103.2L183.4,103.2L188.4,76.8C190.4,66.8 195.5,60.7 200.3,60.7C203.7,60.7 205,63 205,66.3C205,68.4 204.8,70.9 204.3,73L198.6,103.3L213.7,103.3L219.6,72.1C220.3,68.8 220.7,64.9 220.7,62.2C220.9,53.5 216.5,48.4 208.6,48.4Z" style="fill:white;fill-rule:nonzero;"/>
                                <path id="o_5_" d="M255.1,48.4C236.9,48.4 224.8,64.8 224.8,83.1C224.8,94.8 232,104.3 245.6,104.3C263.5,104.3 275.5,88.3 275.5,69.6C275.6,58.7 269.3,48.4 255.1,48.4ZM247.7,92.6C242.5,92.6 240.4,88.2 240.4,82.7C240.4,74 244.9,59.9 253.1,59.9C258.5,59.9 260.2,64.5 260.2,69C260.2,78.4 255.7,92.6 247.7,92.6Z" style="fill:white;fill-rule:nonzero;"/>
                                <path id="p_5_" d="M314.3,48.4C304.1,48.4 298.3,57.4 298.3,57.4L298.1,57.4L299,49.3L285.6,49.3C284.9,54.8 283.7,63.1 282.5,69.4L272,124.6L287.1,124.6L291.3,102.2L291.6,102.2C291.6,102.2 294.7,104.2 300.5,104.2C318.3,104.2 329.9,86 329.9,67.6C329.9,57.5 325.4,48.4 314.3,48.4ZM299.9,92.9C296,92.9 293.7,90.7 293.7,90.7L296.2,76.6C298,67.2 302.9,60.9 308.1,60.9C312.7,60.9 314.1,65.2 314.1,69.2C314.1,78.9 308.3,92.9 299.9,92.9Z" style="fill:white;fill-rule:nonzero;"/>
                                <path id="dot_5_" d="M351.5,26.7C346.7,26.7 342.8,30.5 342.8,35.5C342.8,40 345.6,43.1 349.9,43.1L350.1,43.1C354.8,43.1 358.9,39.9 359,34.3C359.1,29.8 356.1,26.7 351.5,26.7Z" style="fill:white;fill-rule:nonzero;"/>
                                <path id="i_5_" d="M330.3,103.2L345.5,103.2L355.8,49.6L340.5,49.6L330.3,103.2Z" style="fill:white;fill-rule:nonzero;"/>
                                <path id="f_5_" d="M394.2,49.5L383.7,49.5L384.2,47C385.1,41.8 388.1,37.2 393.2,37.2C395.9,37.2 398,38 398,38L401,26.2C401,26.2 398.4,24.9 392.8,24.9C387.4,24.9 382.1,26.4 378,29.9C372.8,34.3 370.4,40.6 369.2,47L368.8,49.5L361.8,49.5L359.6,60.9L366.6,60.9L358.6,103.2L373.7,103.2L381.7,60.9L392.1,60.9L394.2,49.5Z" style="fill:white;fill-rule:nonzero;"/>
                                <path id="y_5_" d="M430.6,49.6C430.6,49.6 421.1,73.4 416.9,86.4L416.7,86.4C416.4,82.2 413,49.6 413,49.6L397.1,49.6L406.2,98.8C406.4,99.9 406.3,100.6 405.9,101.3C404.1,104.7 401.2,108 397.7,110.4C394.9,112.5 391.7,113.8 389.2,114.7L393.4,127.5C396.5,126.8 402.8,124.3 408.2,119.3C415.1,112.8 421.5,102.9 428,89.3L446.5,49.6L430.6,49.6Z" style="fill:white;fill-rule:nonzero;"/>
                            </g>
                            <g>
                                <path d="M74.8,14.8C74.8,14.8 73.4,15.2 71.1,15.9C70.7,14.6 70.1,13.1 69.3,11.5C66.7,6.5 62.8,3.8 58.2,3.8C57.9,3.8 57.6,3.8 57.2,3.9C57.1,3.7 56.9,3.6 56.8,3.4C54.8,1.2 52.2,0.2 49.1,0.3C43.1,0.5 37.1,4.8 32.3,12.5C28.9,17.9 26.3,24.7 25.6,30C18.7,32.1 13.9,33.6 13.8,33.7C10.3,34.8 10.2,34.9 9.8,38.2C9.5,40.7 0.3,111.1 0.3,111.1L75.9,124.2L75.9,14.7C75.3,14.7 75,14.8 74.8,14.8ZM57.3,20.2C53.3,21.4 48.9,22.8 44.6,24.1C45.8,19.4 48.2,14.7 51,11.6C52.1,10.5 53.6,9.2 55.3,8.4C57,12 57.4,16.9 57.3,20.2ZM49.1,4.4C50.5,4.4 51.7,4.7 52.7,5.3C51.1,6.1 49.5,7.4 48,8.9C44.2,13 41.3,19.4 40.1,25.5C36.5,26.6 32.9,27.7 29.6,28.7C31.8,19.1 39.9,4.6 49.1,4.4ZM37.5,59.4C37.9,65.8 54.8,67.2 55.8,82.3C56.5,94.2 49.5,102.3 39.4,102.9C27.2,103.7 20.5,96.5 20.5,96.5L23.1,85.5C23.1,85.5 29.8,90.6 35.2,90.2C38.7,90 40,87.1 39.9,85.1C39.4,76.7 25.6,77.2 24.7,63.4C23.9,51.8 31.5,40.1 48.3,39C54.8,38.6 58.1,40.2 58.1,40.2L54.3,54.6C54.3,54.6 50,52.6 44.9,53C37.5,53.5 37.4,58.2 37.5,59.4ZM61.3,19C61.3,16 60.9,11.7 59.5,8.1C64.1,9 66.3,14.1 67.3,17.2C65.5,17.7 63.5,18.3 61.3,19Z" style="fill:white;fill-rule:nonzero;"/>
                                <path d="M78.2,124L109.6,116.2C109.6,116.2 96.1,24.9 96,24.3C95.9,23.7 95.4,23.3 94.9,23.3C94.4,23.3 85.6,23.1 85.6,23.1C85.6,23.1 80.2,17.9 78.2,15.9L78.2,124Z" style="fill:white;fill-rule:nonzero;"/>
                            </g>
                        </g>
                    </g>
                </g>
            </g>
        </g>
    </g>
</svg>
