<?xml version="1.0" encoding="UTF-8" standalone="no"?>
<!DOCTYPE svg PUBLIC "-//W3C//DTD SVG 1.1//EN" "http://www.w3.org/Graphics/SVG/1.1/DTD/svg11.dtd">
<svg width="100%" height="100%" viewBox="0 0 123 123" version="1.1" xmlns="http://www.w3.org/2000/svg" xmlns:xlink="http://www.w3.org/1999/xlink" xml:space="preserve" xmlns:serif="http://www.serif.com/" style="fill-rule:evenodd;clip-rule:evenodd;stroke-linejoin:round;stroke-miterlimit:2;">
    <g transform="matrix(1,0,0,1,428.635,-4306.66)">
        <path d="M-367.373,4306.66C-401.152,4306.66 -428.635,4334.14 -428.635,4367.92C-428.635,4401.71 -401.152,4429.19 -367.373,4429.19C-333.595,4429.19 -306.108,4401.71 -306.108,4367.92C-306.109,4334.14 -333.595,4306.66 -367.373,4306.66ZM-367.373,4426.38C-399.603,4426.38 -425.826,4400.15 -425.826,4367.92C-425.826,4335.69 -399.604,4309.47 -367.373,4309.47C-335.144,4309.47 -308.923,4335.69 -308.923,4367.92C-308.923,4400.15 -335.144,4426.38 -367.373,4426.38ZM-366.451,4372.52L-382.219,4418.34C-377.511,4419.72 -372.532,4420.48 -367.373,4420.48C-361.253,4420.48 -355.384,4419.42 -349.921,4417.5C-350.062,4417.28 -350.19,4417.04 -350.295,4416.78L-366.451,4372.52ZM-419.927,4367.92C-419.927,4388.73 -407.838,4406.7 -390.308,4415.22L-415.377,4346.53C-418.293,4353.07 -419.927,4360.3 -419.927,4367.92ZM-321.259,4342.71C-321.033,4344.38 -320.905,4346.18 -320.905,4348.11C-320.905,4353.45 -321.901,4359.44 -324.901,4366.94L-340.954,4413.35C-325.33,4404.24 -314.821,4387.31 -314.821,4367.92C-314.82,4358.79 -317.154,4350.19 -321.259,4342.71ZM-331.895,4365.27C-331.895,4358.78 -334.228,4354.28 -336.229,4350.78C-338.893,4346.45 -341.39,4342.78 -341.39,4338.45C-341.39,4333.62 -337.726,4329.12 -332.565,4329.12C-332.332,4329.12 -332.111,4329.15 -331.884,4329.17C-341.234,4320.6 -353.691,4315.37 -367.373,4315.37C-385.733,4315.37 -401.886,4324.79 -411.283,4339.06C-410.05,4339.1 -408.888,4339.12 -407.901,4339.12C-402.404,4339.12 -393.895,4338.45 -393.895,4338.45C-391.062,4338.29 -390.728,4342.45 -393.558,4342.78C-393.558,4342.78 -396.405,4343.12 -399.573,4343.28L-380.435,4400.21L-368.934,4365.72L-377.122,4343.28C-379.952,4343.12 -382.633,4342.78 -382.633,4342.78C-385.465,4342.62 -385.133,4338.29 -382.301,4338.45C-382.301,4338.45 -373.622,4339.12 -368.458,4339.12C-362.962,4339.12 -354.452,4338.45 -354.452,4338.45C-351.617,4338.29 -351.284,4342.45 -354.115,4342.78C-354.115,4342.78 -356.968,4343.12 -360.13,4343.28L-341.138,4399.78L-335.896,4382.26C-333.624,4374.99 -331.895,4369.77 -331.895,4365.27Z" style="fill:white;fill-rule:nonzero;"/>
    </g>
</svg>
